<?xml version="1.0" encoding="UTF-8"?>
<svg width="76px" height="75px" viewBox="0 0 76 75" version="1.1" xmlns="http://www.w3.org/2000/svg" xmlns:xlink="http://www.w3.org/1999/xlink">
    <!-- Generator: Sketch 47.1 (45422) - http://www.bohemiancoding.com/sketch -->
    <title>Group</title>
    <desc>Created with Sketch.</desc>
    <defs></defs>
    <g id="Page-1" stroke="none" stroke-width="1" fill="none" fill-rule="evenodd">
        <g id="logo" transform="translate(-46.000000, -1.000000)" fill-rule="nonzero">
            <g id="Group" transform="translate(46.101320, 1.000000)">
                <path d="M36.51,0 L42.35,0 C50.49,1.45 58.58,4.56 64.54,10.48 C75.12,20.44 78.55,37.07 73.49,50.57 C68.59,64.25 55,73.75 40.71,75 L33.67,75 C26.73,73.72 19.88,71.14 14.44,66.55 C7.68,61.16 3.28,53.23 1.41,44.87 C-0.96,34.36 1.74,22.86 8.44,14.45 C15.1,5.79 26.01,1.54 36.51,0 Z" id="Shape" fill="#FF008A"></path>
                <path d="M30.38,3.42 C47.33,-1.22 66.71,9.13 71.88,25.99 C74.12,35.37 74.54,45.86 69.37,54.39 C61.53,69.02 42.7,76.49 26.97,71.06 C14.92,67.26 5.78,56.32 3.39,44.02 C2.14,35.95 2.85,27.28 7.19,20.19 C11.8,11.29 20.93,5.87 30.38,3.42 Z" id="Shape" fill="#FFFFFF"></path>
                <path d="M25.31,7.3 C34.84,2.03 47.02,4.27 55.95,9.92 C48.28,11.97 41.1,15.77 35.32,21.25 C32.01,24.06 29.54,27.71 26.23,30.51 C24.44,30.31 24.75,28.12 24.23,26.87 C23.21,20.45 22.61,13.38 25.31,7.3 Z" id="Shape" fill-opacity="0.303470335" fill="#000000"></path>
                <path d="M5.76,29.07 C7.73,20.56 13.66,13.35 21.08,8.92 C20.18,15.9 19.78,23.17 21.85,29.99 C23.22,34.72 24.61,39.45 25.9,44.21 C19.51,42.11 13.03,39.59 7.89,35.13 C6.05,33.74 5.17,31.31 5.76,29.07 Z" id="Shape" fill-opacity="0.303470335" fill="#000000"></path>
                <path d="M36.88,24.15 C42.55,17.65 50.68,13.44 59.19,12.19 C67.41,18.54 71.56,29.05 71.32,39.28 C63.74,31.69 53.42,27.23 42.87,25.81 C40.81,25.52 38.83,24.84 36.88,24.15 Z" id="Shape" fill-opacity="0.303470335" fill="#000000"></path>
                <path d="M32.49,32.11 C33.4,27.76 38.82,27.9 41.8,30.05 C43.77,31.58 43.89,34.23 44.45,36.45 C40.98,33.74 37.05,31.66 32.49,32.11 Z" id="Shape" fill="#FF008A"></path>
                <path d="M48.54,29.89 C56.25,32.04 63.9,35.69 69.25,41.81 C70.59,43.17 70.88,45.17 70.19,46.93 C67.23,55.64 61,63.33 52.68,67.43 C54.39,60.91 55.2,53.98 53.4,47.38 C51.79,41.55 50.47,35.63 48.54,29.89 Z" id="Shape" fill-opacity="0.303470335" fill="#000000"></path>
                <path d="M4.68,37.65 C7.53,39.7 10.27,41.95 13.44,43.49 C21.28,46.98 29.85,48.37 37.73,51.7 C33.39,55.26 29.1,59.05 23.97,61.46 C20.22,63.11 15.42,62.56 12.65,59.36 C7.01,53.68 5.08,45.41 4.68,37.65 Z" id="Shape" fill-opacity="0.303470335" fill="#000000"></path>
                <path d="M44.19,38.28 C45.78,37.83 46.77,40.55 45.36,41.34 C43.36,43.3 41.36,38.61 44.19,38.28 Z" id="Shape" fill="#FF008A"></path>
                <path d="M34.98,57.9 C40.1,53.26 44.66,48.06 49.63,43.28 C50.94,49.75 52.19,56.47 51,63.06 C50.46,66.57 47.56,69.66 44.06,70.35 C36.24,71.7 27.97,70.53 21.09,66.48 C21.15,66.33 21.27,66.04 21.34,65.9 C26.12,63.68 31.01,61.46 34.98,57.9 Z" id="Shape" fill-opacity="0.303470335" fill="#000000"></path>
            </g>
        </g>
    </g>
</svg>