<?xml version="1.0" encoding="UTF-8"?>
<svg width="20px" height="16px" viewBox="0 0 20 16" version="1.1" xmlns="http://www.w3.org/2000/svg" xmlns:xlink="http://www.w3.org/1999/xlink">
    <!-- Generator: Sketch 47.1 (45422) - http://www.bohemiancoding.com/sketch -->
    <title>envelope</title>
    <desc>Created with Sketch.</desc>
    <defs></defs>
    <g id="Page-1" stroke="none" stroke-width="1" fill="none" fill-rule="evenodd">
        <g id="envelope" fill-rule="nonzero" fill="#FF1288">
            <g id="Group" transform="translate(9.882353, 8.469600) scale(-1, 1) rotate(-180.000000) translate(-9.882353, -8.469600) translate(0.000000, 0.940188)">
                <path d="M1.59684833,15.0509134 C1.2488046,15.0291608 0.973929167,14.9401722 0.735637866,14.7720829 C0.436043413,14.5624657 0.184898227,14.1699278 0.0791008458,13.743772 C-0.0039550423,13.4145147 -0.0177976904,13.0476845 0.0405391835,12.760944 C0.102831099,12.4544281 0.282785524,12.0727666 0.527998146,11.7276891 C0.748491754,11.4182071 1.05995133,11.0622533 1.31109652,10.8318721 C1.57905064,10.5866595 1.60871345,10.5649067 3.65841412,9.14306902 C5.91773203,7.57588351 6.57328029,7.11808737 7.2377274,6.64348229 C7.84680391,6.20842764 8.01884824,6.09274265 8.38864471,5.87323781 C9.01947395,5.49849754 9.48518014,5.39566645 9.98054927,5.52025028 C10.1585261,5.56573327 10.2771774,5.61121625 10.4858058,5.71305859 C10.8338496,5.88411417 11.2174887,6.13031556 11.8997335,6.61876328 C12.1439574,6.7937739 12.4475068,7.00833495 12.5720907,7.09534587 C12.6976632,7.1823568 12.9596848,7.36428875 13.1554594,7.5007377 C13.351234,7.63619791 14.0235912,8.10289289 14.6484879,8.53695879 C15.2743734,8.97102468 16.134595,9.56922485 16.5617396,9.86486428 C17.5336912,10.5401877 17.5870843,10.5787494 17.8322969,10.7972655 C18.2792168,11.1947472 18.6964737,11.7296666 18.9011471,12.1696651 C19.0593488,12.5097988 19.1384497,12.8173033 19.16218,13.1841335 C19.1967865,13.7378394 19.0366073,14.1748716 18.661867,14.5476344 C18.3939129,14.8145996 18.1032173,14.9668688 17.7334209,15.0350933 C17.6513538,15.0509134 17.0620524,15.0519022 9.64535944,15.052891 C5.2463636,15.0538797 1.62453362,15.052891 1.59684833,15.0509134 Z" id="Shape"></path>
                <path d="M0,5.93948476 C0,3.07306786 0.0039550423,1.63639875 0.0108763663,1.55630914 C0.0425167047,1.18156888 0.176988143,0.868131784 0.429122088,0.580402456 C0.677300993,0.296628172 0.986783049,0.113707466 1.36448959,0.0266965354 L1.45842184,0.00494380286 L9.53165195,0.00197752115 C16.8158511,-0.000988760574 17.6157584,-1.65416725e-15 17.7136456,0.013842648 C18.0438917,0.0613031556 18.327666,0.193797072 18.5847437,0.422200765 C18.934765,0.734649106 19.1265846,1.11631069 19.16218,1.57410683 C19.17009,1.68089298 19.1770113,10.2030203 19.1691013,10.2030203 C19.1671237,10.2030203 19.0662701,10.1041443 18.9436638,9.98252678 C18.583755,9.62459539 18.4136882,9.49111275 17.6691514,8.98585608 C15.4474064,7.47898498 13.6785138,6.24896682 12.6264726,5.48168862 C11.9036886,4.95369048 11.6298019,4.77571357 11.2669268,4.59674791 C10.7527712,4.3436252 10.3720984,4.208165 9.98153798,4.13994052 C9.869808,4.12016531 9.81839247,4.11818778 9.58603379,4.11818778 C9.35367502,4.11818778 9.30225947,4.12115407 9.19151829,4.13994052 C8.81183423,4.20618748 8.46873431,4.32582751 7.95853385,4.57005137 C7.57291723,4.7549496 7.29903055,4.93193774 6.49121317,5.52123904 C5.41445289,6.3073037 3.91450311,7.3504461 1.53257889,8.97201344 C0.70795257,9.53264066 0.582379977,9.630528 0.222471129,9.98747059 C0.102831099,10.1061218 0.0039550423,10.2030203 0.00296628172,10.2030203 C0.000988760574,10.2030203 0,8.28383608 0,5.93948476 Z" id="Shape"></path>
            </g>
        </g>
    </g>
</svg>