<?xml version="1.0" encoding="UTF-8"?>
<svg width="9px" height="16px" viewBox="0 0 9 16" version="1.1" xmlns="http://www.w3.org/2000/svg" xmlns:xlink="http://www.w3.org/1999/xlink">
    <!-- Generator: Sketch 47.1 (45422) - http://www.bohemiancoding.com/sketch -->
    <title>facebook</title>
    <desc>Created with Sketch.</desc>
    <defs></defs>
    <g id="Page-1" stroke="none" stroke-width="1" fill="none" fill-rule="evenodd">
        <g id="facebook" fill-rule="nonzero" fill="#FF1288">
            <g id="Group" transform="translate(4.500000, 7.999999) scale(-1, 1) rotate(-180.000000) translate(-4.500000, -7.999999) translate(0.000000, -0.000001)">
                <path d="M5.68163265,15.9836735 C4.99428571,15.9183673 4.42938776,15.7322449 3.95102041,15.4171429 C3.05795918,14.8277551 2.57632653,13.9526531 2.46693878,12.7232653 C2.4555102,12.602449 2.44897959,12.0555102 2.44897959,11.3322449 L2.44897959,10.1387755 L1.2244898,10.1387755 L0,10.1387755 L0,8.71836735 L0,7.29795918 L1.2244898,7.29795918 L2.44897959,7.29795918 L2.44897959,3.64897959 L2.44897959,0 L3.91836735,0 L5.3877551,0 L5.3877551,3.64897959 L5.3877551,7.29795918 L6.6122449,7.29795918 C7.71265306,7.29795918 7.83673469,7.30122449 7.83673469,7.32408163 C7.83673469,7.33714286 7.91836735,7.96081633 8.01632653,8.70857143 C8.11591837,9.45469388 8.19591837,10.0832653 8.19591837,10.1028571 L8.19591837,10.1387755 L6.79183673,10.1387755 L5.3877551,10.1387755 L5.3877551,11.1395918 C5.3877551,12.2057143 5.39755102,12.3608163 5.47102041,12.5959184 C5.58040816,12.9469388 5.76,13.1412245 6.07836735,13.2489796 C6.32163265,13.3306122 6.44571429,13.3387755 7.40897959,13.3387755 L8.29387755,13.3387755 L8.29387755,14.6106122 L8.29387755,15.882449 L8.24163265,15.8922449 C8.14857143,15.9085714 7.70612245,15.9493878 7.43673469,15.9673469 C7.07591837,15.9902041 5.87102041,16.0016327 5.68163265,15.9836735 Z" id="Shape"></path>
            </g>
        </g>
    </g>
</svg>