<?xml version="1.0" encoding="UTF-8"?>
<svg width="16px" height="16px" viewBox="0 0 16 16" version="1.1" xmlns="http://www.w3.org/2000/svg" xmlns:xlink="http://www.w3.org/1999/xlink">
    <!-- Generator: Sketch 47.1 (45422) - http://www.bohemiancoding.com/sketch -->
    <title>instagram</title>
    <desc>Created with Sketch.</desc>
    <defs></defs>
    <g id="Page-1" stroke="none" stroke-width="1" fill="none" fill-rule="evenodd">
        <g id="instagram" fill-rule="nonzero" fill="#FF1288">
            <g id="Group" transform="translate(8.019945, 8.000000) scale(-1, 1) rotate(-180.000000) translate(-8.019945, -8.000000) translate(0.019945, -0.000000)">
                <path d="M3.44819945,15.9533333 C3.00720222,15.8755556 2.52409972,15.7111111 2.18060942,15.5177778 C2.10304709,15.4755556 2.04099723,15.4466667 2.04099723,15.4533333 C2.04099723,15.46 2.08088643,15.4866667 2.12963989,15.5111111 C2.17839335,15.5355556 2.21828255,15.5622222 2.21828255,15.5688889 C2.21828255,15.6111111 1.71301939,15.28 1.48919668,15.0955556 C1.30526316,14.94 0.999445983,14.64 0.999445983,14.6155556 C0.999445983,14.6044444 1.01717452,14.6088889 1.03711911,14.6244444 C1.05927978,14.64 1.04819945,14.6222222 1.01274238,14.5822222 C0.937396122,14.5022222 0.904155125,14.4844444 0.968421053,14.5622222 C0.990581717,14.5888889 0.977285319,14.5822222 0.937396122,14.5466667 C0.864265928,14.4777778 0.83767313,14.4155556 0.904155125,14.4688889 C0.937396122,14.4933333 0.935180055,14.4911111 0.901939058,14.4488889 C0.855401662,14.3955556 0.831024931,14.3844444 0.857617729,14.4288889 C0.868698061,14.4466667 0.862049861,14.4466667 0.83767313,14.4244444 C0.797783934,14.3933333 0.784487535,14.3444444 0.822160665,14.3666667 C0.857617729,14.3888889 0.846537396,14.3644444 0.806648199,14.3311111 C0.773407202,14.3044444 0.771191136,14.3044444 0.788919668,14.3333333 C0.806648199,14.3622222 0.804432133,14.3622222 0.771191136,14.3355556 C0.729085873,14.3022222 0.720221607,14.2555556 0.760110803,14.28 C0.775623269,14.2888889 0.777839335,14.2866667 0.768975069,14.2688889 C0.760110803,14.2555556 0.744598338,14.2488889 0.733518006,14.2555556 C0.722437673,14.2622222 0.689196676,14.2311111 0.658171745,14.1844444 C0.596121884,14.0933333 0.585041551,14.0555556 0.629362881,14.08 C0.644875346,14.0888889 0.649307479,14.0866667 0.638227147,14.0755556 C0.627146814,14.0644444 0.607202216,14.0555556 0.596121884,14.0555556 C0.582825485,14.0555556 0.567313019,14.0422222 0.56066482,14.0244444 C0.55401662,14.0044444 0.56066482,14 0.578393352,14.0111111 C0.59833795,14.0222222 0.602770083,14.02 0.591689751,14.0022222 C0.582825485,13.9888889 0.567313019,13.9822222 0.556232687,13.9888889 C0.529639889,14.0044444 0.416620499,13.7844444 0.43434903,13.7533333 C0.443213296,13.7422222 0.436565097,13.7355556 0.423268698,13.7377778 C0.390027701,13.7466667 0.223822715,13.3711111 0.135180055,13.0888889 C-0.00664819945,12.6355556 0.00221606648,12.9955556 0.00221606648,8 C0.00221606648,2.96 -0.00886426593,3.36444444 0.150692521,2.86666667 C0.237119114,2.59555556 0.549584488,1.94444444 0.593905817,1.94444444 C0.607202216,1.94444444 0.627146814,1.93555556 0.638227147,1.92444444 C0.649307479,1.91333333 0.64265928,1.91111111 0.624930748,1.92222222 C0.60498615,1.93333333 0.59833795,1.92888889 0.60498615,1.90888889 C0.611634349,1.89111111 0.627146814,1.87777778 0.640443213,1.87777778 C0.651523546,1.87777778 0.671468144,1.86888889 0.682548476,1.85777778 C0.693628809,1.84666667 0.686980609,1.84444444 0.669252078,1.85555556 C0.649307479,1.86666667 0.64265928,1.86222222 0.649307479,1.84222222 C0.655955679,1.82444444 0.671468144,1.81111111 0.684764543,1.81111111 C0.695844875,1.81111111 0.715789474,1.80222222 0.726869806,1.79111111 C0.737950139,1.78 0.731301939,1.77777778 0.713573407,1.78888889 C0.693628809,1.8 0.686980609,1.79555556 0.693628809,1.77555556 C0.700277008,1.75777778 0.715789474,1.74444444 0.729085873,1.74444444 C0.740166205,1.74444444 0.760110803,1.73555556 0.771191136,1.72444444 C0.782271468,1.71333333 0.777839335,1.71111111 0.76232687,1.72 C0.720221607,1.74444444 0.726869806,1.7 0.771191136,1.66444444 C0.795567867,1.64222222 0.802216066,1.64222222 0.791135734,1.66 C0.766759003,1.70222222 0.788919668,1.69555556 0.824376731,1.65111111 C0.846537396,1.62666667 0.846537396,1.62 0.828808864,1.63111111 C0.780055402,1.65777778 0.797783934,1.60888889 0.848753463,1.56444444 C0.897506925,1.52222222 0.899722992,1.52222222 0.866481994,1.56666667 C0.833240997,1.61111111 0.835457064,1.61111111 0.884210526,1.56888889 C0.935180055,1.52444444 0.950692521,1.49777778 0.910803324,1.52222222 C0.859833795,1.55333333 0.893074792,1.49333333 0.959556787,1.43111111 C0.999445983,1.39555556 1.01274238,1.38888889 0.990581717,1.41777778 C0.926315789,1.49333333 0.959556787,1.47555556 1.03490305,1.39555556 C1.07036011,1.35555556 1.08144044,1.33777778 1.05927978,1.35333333 C0.968421053,1.42222222 1.03268698,1.33333333 1.18116343,1.18444444 C1.32963989,1.03555556 1.42271468,0.966666667 1.35180055,1.06222222 C1.33628809,1.08222222 1.36066482,1.06444444 1.40498615,1.02444444 C1.50027701,0.935555556 1.51800554,0.9 1.42493075,0.98 C1.36731302,1.03111111 1.36731302,1.03111111 1.42936288,0.96 C1.49362881,0.891111111 1.54903047,0.862222222 1.51800554,0.917777778 C1.50914127,0.931111111 1.52243767,0.924444444 1.54903047,0.902222222 C1.6066482,0.851111111 1.6132964,0.826666667 1.5601108,0.868888889 C1.52686981,0.893333333 1.52908587,0.891111111 1.56232687,0.848888889 C1.60443213,0.8 1.65761773,0.78 1.63102493,0.822222222 C1.60886427,0.857777778 1.633241,0.846666667 1.66648199,0.806666667 C1.68864266,0.782222222 1.68864266,0.775555556 1.67091413,0.786666667 C1.65540166,0.795555556 1.64210526,0.797777778 1.64210526,0.788888889 C1.64210526,0.757777778 2.10526316,0.477777778 2.3534626,0.355555556 C2.66149584,0.208888889 2.94736842,0.106666667 3.23545706,0.0444444444 C3.42382271,0.00222222222 3.57894737,-2.16840434e-19 7.98227147,0.00222222222 C11.8692521,0.00222222222 12.5518006,0.00666666667 12.6559557,0.0333333333 C12.7224377,0.0511111111 12.7423823,0.06 12.700277,0.0533333333 C12.5916898,0.0377777778 12.4365651,0.0266666667 12.4897507,0.0377777778 C12.8,0.104444444 13.1146814,0.191111111 13.2786704,0.255555556 C13.7196676,0.426666667 14.1850416,0.704444444 14.5263158,1.00222222 C14.599446,1.06888889 14.6481994,1.10444444 14.6304709,1.08222222 C14.5595568,0.993333333 14.6526316,1.05555556 14.7789474,1.18444444 C14.9074792,1.31555556 14.9628809,1.39555556 14.8786704,1.33111111 C14.8565097,1.31555556 14.8742382,1.34 14.9141274,1.38444444 C15.0027701,1.48 15.0382271,1.49555556 14.9584488,1.40666667 C14.9252078,1.36666667 14.934072,1.37111111 14.9894737,1.42 C15.0714681,1.49777778 15.1047091,1.56444444 15.033795,1.50888889 C15.000554,1.48444444 15.0027701,1.48666667 15.0360111,1.52888889 C15.0825485,1.58222222 15.1047091,1.59333333 15.0803324,1.55111111 C15.0714681,1.53555556 15.0847645,1.54222222 15.1113573,1.56444444 C15.1689751,1.61555556 15.1778393,1.66444444 15.1224377,1.62 C15.0869806,1.59111111 15.0847645,1.59333333 15.1135734,1.62888889 C15.1313019,1.64888889 15.1490305,1.66222222 15.1556787,1.65555556 C15.1711911,1.64 15.2265928,1.68888889 15.2265928,1.71555556 C15.2265928,1.72888889 15.2088643,1.72444444 15.1889197,1.70888889 C15.1534626,1.68444444 15.1534626,1.68444444 15.1778393,1.71111111 C15.1933518,1.72888889 15.2177285,1.74444444 15.2310249,1.74444444 C15.2443213,1.74444444 15.2598338,1.75777778 15.266482,1.77555556 C15.2731302,1.79555556 15.266482,1.8 15.2465374,1.78888889 C15.2288089,1.77777778 15.2221607,1.78 15.233241,1.79111111 C15.2443213,1.80222222 15.2642659,1.81111111 15.2753463,1.81111111 C15.2886427,1.81111111 15.3041551,1.82444444 15.3108033,1.84222222 C15.3174515,1.86222222 15.3108033,1.86666667 15.2908587,1.85555556 C15.2731302,1.84444444 15.266482,1.84666667 15.2775623,1.85777778 C15.2886427,1.86888889 15.3085873,1.87777778 15.3196676,1.87777778 C15.332964,1.87777778 15.3484765,1.89111111 15.3551247,1.90888889 C15.3617729,1.92888889 15.3551247,1.93333333 15.3373961,1.92222222 C15.3174515,1.91111111 15.3130194,1.91333333 15.3240997,1.93111111 C15.332964,1.94444444 15.3484765,1.95111111 15.3595568,1.94444444 C15.3706371,1.93777778 15.3905817,1.95111111 15.401662,1.97555556 C15.432687,2.03333333 15.432687,2.05111111 15.399446,2.03111111 C15.3839335,2.02222222 15.3817175,2.02444444 15.3905817,2.04222222 C15.399446,2.05555556 15.4149584,2.06222222 15.4260388,2.05555556 C15.4526316,2.04 15.6498615,2.43111111 15.7473684,2.69111111 C15.7872576,2.79555556 15.8515235,3.00444444 15.8891967,3.15333333 L15.9578947,3.42444444 L15.9578947,8 L15.9578947,12.5755556 L15.8891967,12.8488889 C15.8515235,13 15.7806094,13.2222222 15.734072,13.3444444 C15.632133,13.6088889 15.399446,14.0555556 15.366205,14.0555556 C15.3529086,14.0555556 15.332964,14.0644444 15.3218837,14.0755556 C15.3108033,14.0866667 15.3174515,14.0888889 15.3351801,14.0777778 C15.3551247,14.0666667 15.3617729,14.0711111 15.3551247,14.0911111 C15.3484765,14.1088889 15.332964,14.1222222 15.3196676,14.1222222 C15.3085873,14.1222222 15.2886427,14.1311111 15.2775623,14.1422222 C15.266482,14.1533333 15.2731302,14.1555556 15.2908587,14.1444444 C15.3108033,14.1333333 15.3174515,14.1377778 15.3108033,14.1577778 C15.3041551,14.1755556 15.2886427,14.1888889 15.2753463,14.1888889 C15.2642659,14.1888889 15.2443213,14.1977778 15.233241,14.2088889 C15.2221607,14.22 15.2288089,14.2222222 15.2465374,14.2111111 C15.266482,14.2 15.2731302,14.2044444 15.266482,14.2244444 C15.2598338,14.2422222 15.2443213,14.2555556 15.2310249,14.2555556 C15.2199446,14.2555556 15.2,14.2644444 15.1889197,14.2755556 C15.1778393,14.2866667 15.1822715,14.2888889 15.2,14.28 C15.2398892,14.2555556 15.233241,14.3 15.1889197,14.3355556 C15.1556787,14.3622222 15.1534626,14.3622222 15.1711911,14.3333333 C15.1889197,14.3044444 15.1867036,14.3044444 15.1534626,14.3311111 C15.1135734,14.3644444 15.1024931,14.3888889 15.1379501,14.3666667 C15.1512465,14.36 15.1601108,14.3622222 15.1601108,14.3733333 C15.1601108,14.4 15.1047091,14.4466667 15.0891967,14.4333333 C15.0825485,14.4266667 15.0648199,14.4377778 15.0470914,14.46 C15.0271468,14.4844444 15.0249307,14.4911111 15.0448753,14.48 C15.0980609,14.4488889 15.0692521,14.5044444 15.000554,14.5688889 C14.9606648,14.6044444 14.9473684,14.6111111 14.9695291,14.5844444 C15.033795,14.5066667 15.000554,14.5244444 14.9252078,14.6044444 C14.8897507,14.6444444 14.8786704,14.6622222 14.900831,14.6466667 C14.9916898,14.5777778 14.9274238,14.6666667 14.7789474,14.8155556 C14.6304709,14.9644444 14.5373961,15.0333333 14.6083102,14.94 C14.6238227,14.9177778 14.599446,14.9355556 14.5551247,14.9755556 C14.4598338,15.0644444 14.4421053,15.1 14.5351801,15.02 C14.5927978,14.9688889 14.5927978,14.9688889 14.5307479,15.04 C14.466482,15.1088889 14.4110803,15.1377778 14.4421053,15.0844444 C14.4509695,15.0688889 14.4376731,15.0755556 14.4110803,15.0977778 C14.3534626,15.1488889 14.3445983,15.1733333 14.4022161,15.1311111 C14.4354571,15.1022222 14.4376731,15.1044444 14.4088643,15.14 C14.3689751,15.1911111 13.9501385,15.4733333 13.8105263,15.5422222 C13.7551247,15.5711111 13.6952909,15.5888889 13.6775623,15.5822222 C13.6576177,15.5755556 13.6531856,15.5822222 13.6642659,15.6 C13.6753463,15.62 13.6731302,15.6244444 13.6554017,15.6133333 C13.6421053,15.6044444 13.5357341,15.6377778 13.4182825,15.6866667 C13.1368421,15.8088889 12.8310249,15.8977778 12.500831,15.9533333 C12.232687,16 12.1905817,16 7.9601108,15.9977778 C3.85817175,15.9955556 3.68310249,15.9955556 3.44819945,15.9533333 Z M12.3457064,14.5711111 C12.932964,14.4377778 13.4182825,14.1711111 13.8083102,13.7666667 C13.899169,13.6711111 13.9612188,13.6 13.9479224,13.6088889 C13.9058172,13.6333333 13.9124654,13.5888889 13.9567867,13.5533333 C13.9811634,13.5311111 13.9878116,13.5311111 13.9767313,13.5511111 C13.9501385,13.5933333 13.9745152,13.5822222 14.0210526,13.5288889 C14.0542936,13.4866667 14.0565097,13.4844444 14.0254848,13.5088889 C14.0033241,13.5244444 13.9855956,13.5288889 13.9855956,13.5155556 C13.9855956,13.4866667 14.0409972,13.4422222 14.0565097,13.4577778 C14.0631579,13.4644444 14.0764543,13.4577778 14.0875346,13.4422222 C14.098615,13.4244444 14.0941828,13.42 14.0742382,13.4333333 C14.0565097,13.4444444 14.0498615,13.44 14.0565097,13.42 C14.0631579,13.4022222 14.0786704,13.3888889 14.0919668,13.3888889 C14.1030471,13.3888889 14.1229917,13.38 14.134072,13.3688889 C14.1451524,13.3577778 14.1385042,13.3555556 14.1207756,13.3666667 C14.100831,13.3777778 14.0941828,13.3733333 14.100831,13.3533333 C14.1074792,13.3355556 14.1229917,13.3222222 14.1362881,13.3222222 C14.1473684,13.3222222 14.167313,13.3133333 14.1783934,13.3022222 C14.1894737,13.2911111 14.1850416,13.2888889 14.1695291,13.2977778 C14.1274238,13.3222222 14.134072,13.3044444 14.2160665,13.1511111 C14.3578947,12.8911111 14.4731302,12.5333333 14.5240997,12.2 C14.532964,12.1511111 14.532964,12.1533333 14.5373961,12.2111111 C14.5373961,12.2488889 14.5196676,12.3622222 14.4952909,12.4644444 C14.4709141,12.5666667 14.4531856,12.6555556 14.4598338,12.66 C14.4642659,12.6644444 14.4930748,12.5755556 14.5218837,12.4622222 L14.5728532,12.2555556 L14.5728532,8 C14.5728532,4.70666667 14.566205,3.72444444 14.5462604,3.65555556 C14.5218837,3.57333333 14.5196676,3.57333333 14.532964,3.64444444 C14.5396122,3.68666667 14.5484765,5.61777778 14.5484765,7.93333333 L14.5506925,12.1444444 L14.5396122,7.93333333 C14.5285319,4.05555556 14.5240997,3.70888889 14.4886427,3.56666667 C14.4376731,3.36 14.366759,3.14222222 14.3135734,3.03777778 C14.2891967,2.98888889 14.2759003,2.93777778 14.2825485,2.92 C14.2914127,2.89777778 14.2869806,2.89333333 14.2692521,2.90222222 C14.2515235,2.91333333 14.2493075,2.90666667 14.2581717,2.88 C14.267036,2.85777778 14.2648199,2.84666667 14.2515235,2.85555556 C14.2404432,2.86222222 14.2160665,2.83777778 14.1961219,2.80222222 C14.1562327,2.72222222 14.1540166,2.70444444 14.1916898,2.72444444 C14.2072022,2.73333333 14.2116343,2.73111111 14.200554,2.72 C14.1894737,2.70888889 14.1695291,2.7 14.1584488,2.7 C14.1451524,2.7 14.1296399,2.68666667 14.1229917,2.66888889 C14.1163435,2.64888889 14.1229917,2.64444444 14.1429363,2.65555556 C14.1606648,2.66666667 14.167313,2.66444444 14.1562327,2.65333333 C14.1451524,2.64222222 14.1252078,2.63333333 14.1141274,2.63333333 C14.100831,2.63333333 14.0853186,2.62 14.0786704,2.60222222 C14.0720222,2.58222222 14.0786704,2.57777778 14.098615,2.58888889 C14.1163435,2.6 14.1229917,2.59777778 14.1119114,2.58666667 C14.100831,2.57555556 14.0808864,2.56666667 14.0698061,2.56666667 C14.0565097,2.56666667 14.0409972,2.55333333 14.034349,2.53555556 C14.0277008,2.51555556 14.034349,2.51111111 14.0542936,2.52444444 C14.0808864,2.54 14.0808864,2.53555556 14.0542936,2.50444444 C14.0188366,2.46 13.9966759,2.45333333 14.0210526,2.49555556 C14.032133,2.51333333 14.0254848,2.51333333 14.001108,2.49111111 C13.9612188,2.46 13.9479224,2.41111111 13.9855956,2.43333333 C14.0254848,2.45777778 14.0099723,2.43111111 13.9590028,2.38666667 C13.9102493,2.34444444 13.9080332,2.34444444 13.9412742,2.38888889 C13.965651,2.42222222 13.9567867,2.42 13.9124654,2.38 C13.8459834,2.32 13.8282548,2.26666667 13.8903047,2.31333333 C13.9124654,2.32888889 13.8747922,2.28444444 13.8083102,2.21333333 C13.5357341,1.92444444 13.0925208,1.64888889 12.6847645,1.51111111 C12.2614958,1.37111111 12.4698061,1.37555556 7.88033241,1.38222222 L3.71412742,1.38888889 L3.50360111,1.44666667 C3.09362881,1.56222222 2.68808864,1.75555556 2.47977839,1.93777778 C2.4398892,1.97111111 2.49085873,1.94444444 2.59279778,1.87555556 C2.81883657,1.72666667 2.97396122,1.64666667 3.1933518,1.56888889 C3.39944598,1.49333333 3.69196676,1.42222222 3.78060942,1.42444444 C3.81828255,1.42444444 3.77174515,1.44 3.67867036,1.45777778 C3.46371191,1.49555556 3.1800554,1.58444444 2.98060942,1.67777778 C2.81440443,1.75333333 2.48421053,1.95777778 2.4398892,2.01111111 C2.40886427,2.04888889 2.36232687,2.05777778 2.38448753,2.02222222 C2.41551247,1.97111111 2.3734072,2.00888889 2.18504155,2.20444444 C2.07423823,2.31555556 2.0033241,2.39555556 2.02548476,2.38 C2.08088643,2.33777778 2.07202216,2.38444444 2.01440443,2.43555556 C1.98781163,2.45777778 1.97451524,2.46444444 1.9833795,2.45111111 C2.00554017,2.40888889 1.98559557,2.41555556 1.9501385,2.46 C1.92797784,2.48444444 1.92797784,2.49111111 1.94792244,2.48 C1.98781163,2.45555556 1.98116343,2.5 1.93684211,2.53555556 C1.91246537,2.55777778 1.90581717,2.55777778 1.91689751,2.54 C1.94127424,2.49777778 1.91911357,2.50444444 1.88365651,2.54888889 C1.85706371,2.58 1.85706371,2.58444444 1.88365651,2.56888889 C1.90360111,2.55555556 1.91024931,2.56 1.90360111,2.58 C1.89695291,2.59777778 1.88144044,2.61111111 1.87036011,2.61111111 C1.85706371,2.61111111 1.83711911,2.62 1.82603878,2.63111111 C1.81495845,2.64222222 1.81939058,2.64444444 1.83711911,2.63555556 C1.87036011,2.61555556 1.87036011,2.63333333 1.83933518,2.69111111 C1.82825485,2.71555556 1.80831025,2.72888889 1.79722992,2.72222222 C1.78614958,2.71555556 1.77063712,2.72222222 1.76177285,2.73555556 C1.75290859,2.75333333 1.75512465,2.75555556 1.77063712,2.74666667 C1.81052632,2.72222222 1.80387812,2.74222222 1.71080332,2.93111111 C1.6066482,3.13777778 1.54238227,3.31777778 1.48033241,3.58888889 C1.43379501,3.78666667 1.43379501,3.82222222 1.42049861,7.9 L1.40720222,12.0111111 L1.40941828,7.9 L1.41163435,3.78888889 L1.45817175,3.58888889 C1.53351801,3.28 1.53351801,3.27111111 1.49806094,3.36444444 C1.48033241,3.41111111 1.44709141,3.53555556 1.42714681,3.64222222 C1.38947368,3.82 1.38725762,4.11111111 1.38725762,8 L1.38725762,12.1666667 L1.43822715,12.4 C1.46703601,12.5288889 1.49806094,12.6422222 1.50914127,12.6533333 C1.52022161,12.6644444 1.51357341,12.6155556 1.49584488,12.5466667 C1.47811634,12.4755556 1.46703601,12.4066667 1.47368421,12.3933333 C1.47811634,12.3777778 1.48476454,12.3822222 1.48476454,12.4022222 C1.48919668,12.4888889 1.6066482,12.8466667 1.68864266,13.02 C1.73518006,13.1222222 1.76842105,13.2155556 1.75955679,13.2288889 C1.75290859,13.24 1.75734072,13.2444444 1.76842105,13.2377778 C1.78171745,13.2288889 1.81274238,13.2577778 1.83933518,13.3022222 C1.89252078,13.3933333 1.89695291,13.4088889 1.85927978,13.3866667 C1.83933518,13.3755556 1.83933518,13.3822222 1.86149584,13.4066667 C1.89695291,13.4511111 1.91911357,13.4577778 1.89473684,13.4177778 C1.88365651,13.3977778 1.89030471,13.3977778 1.91468144,13.42 C1.95900277,13.4555556 1.96565097,13.5 1.92576177,13.4755556 C1.91024931,13.4666667 1.90360111,13.4666667 1.91246537,13.4755556 C1.91911357,13.4844444 1.93019391,13.4888889 1.93684211,13.4844444 C1.9501385,13.4733333 2.01883657,13.5355556 2.01883657,13.56 C2.01883657,13.5733333 2.0033241,13.5711111 1.98559557,13.5555556 C1.92797784,13.5066667 1.9501385,13.5466667 2.01218837,13.6022222 C2.05872576,13.6422222 2.06537396,13.6444444 2.04099723,13.6111111 C2.0166205,13.5777778 2.0232687,13.58 2.06980609,13.62 C2.13628809,13.68 2.15401662,13.7355556 2.09196676,13.6866667 C2.06980609,13.6711111 2.08310249,13.6911111 2.11855956,13.7311111 C2.21828255,13.8444444 2.51080332,14.0888889 2.52853186,14.0777778 C2.53739612,14.0711111 2.62603878,14.1155556 2.72354571,14.1755556 C2.82105263,14.2333333 2.95623269,14.3044444 3.02493075,14.3333333 C3.09362881,14.36 3.1468144,14.3888889 3.1401662,14.3933333 C3.12686981,14.4088889 2.82105263,14.2622222 2.67036011,14.1688889 C2.59944598,14.1244444 2.56398892,14.1088889 2.59279778,14.1333333 C2.8166205,14.3266667 3.37950139,14.54 3.82493075,14.5977778 C3.91357341,14.6088889 5.72188366,14.6155556 8.07977839,14.6133333 C11.8360111,14.6088889 12.1927978,14.6044444 12.3457064,14.5711111 Z" id="Shape"></path>
                <path d="M12.2238227,13.3844444 C12.1240997,13.3622222 11.9689751,13.3066667 11.9578947,13.2888889 C11.9512465,13.28 12,13.2911111 12.0642659,13.3177778 C12.2304709,13.3844444 12.5518006,13.3822222 12.7224377,13.3155556 C12.7889197,13.2888889 12.8753463,13.2422222 12.9108033,13.2111111 C12.9706371,13.1622222 12.9639889,13.1622222 12.866482,13.2222222 C12.5628809,13.4044444 12.1418283,13.3888889 11.8626039,13.1888889 L11.7806094,13.1311111 L11.8581717,13.2 C11.900277,13.24 11.9157895,13.2622222 11.8914127,13.2488889 C11.8271468,13.2155556 11.6365651,13.0444444 11.6365651,13.02 C11.6365651,13.0066667 11.6498615,13.0044444 11.665374,13.0133333 C11.6831025,13.0244444 11.6831025,13.0177778 11.6609418,12.9933333 C11.6277008,12.9511111 11.6033241,12.9422222 11.6277008,12.9822222 C11.6365651,12.9977778 11.634349,13 11.6166205,12.9911111 C11.567867,12.96 11.4614958,12.7155556 11.434903,12.5688889 C11.4127424,12.4533333 11.4127424,12.3911111 11.434903,12.2755556 C11.4614958,12.1288889 11.567867,11.8844444 11.6166205,11.8533333 C11.634349,11.8422222 11.6365651,11.8466667 11.6254848,11.8688889 C11.6144044,11.8866667 11.6277008,11.88 11.6542936,11.8577778 C11.7096953,11.8111111 11.7229917,11.7777778 11.6698061,11.8222222 C11.6210526,11.8622222 11.6277008,11.8133333 11.6764543,11.7711111 C11.698615,11.7488889 11.7252078,11.74 11.734072,11.7488889 C11.7429363,11.76 11.7473684,11.7533333 11.7429363,11.7355556 C11.7407202,11.72 11.7495845,11.7 11.767313,11.6933333 C11.7872576,11.6866667 11.7916898,11.6933333 11.7806094,11.7133333 C11.7695291,11.7311111 11.7872576,11.7222222 11.8160665,11.6955556 C11.8891967,11.6288889 12.0731302,11.54 12.1905817,11.5133333 C12.4099723,11.4622222 12.667036,11.5044444 12.866482,11.6244444 C12.9639889,11.6822222 12.9706371,11.6822222 12.9108033,11.6333333 C12.7911357,11.5333333 12.6227147,11.4822222 12.401108,11.48 C12.1795014,11.4777778 12.0531856,11.5133333 11.8803324,11.6288889 C11.8160665,11.6711111 11.7939058,11.6777778 11.8204986,11.6511111 C11.8825485,11.5822222 12.0975069,11.4866667 12.2504155,11.46 C12.5252078,11.4111111 12.8155125,11.5044444 13.0437673,11.7155556 C13.1545706,11.8155556 13.2055402,11.8933333 13.1390582,11.8533333 C13.1213296,11.8444444 13.1168975,11.8466667 13.1279778,11.8577778 C13.1390582,11.8688889 13.1590028,11.8777778 13.1722992,11.8777778 C13.1833795,11.8777778 13.198892,11.8911111 13.2055402,11.9088889 C13.2121884,11.9288889 13.2055402,11.9333333 13.1855956,11.9222222 C13.167867,11.9111111 13.1612188,11.9133333 13.1722992,11.9244444 C13.1833795,11.9355556 13.2033241,11.9444444 13.2166205,11.9444444 C13.2609418,11.9444444 13.3473684,12.2022222 13.3606648,12.3622222 C13.3916898,12.8088889 13.0703601,13.2488889 12.6227147,13.3644444 C12.498615,13.3977778 12.3213296,13.4066667 12.2238227,13.3844444 Z" id="Shape"></path>
                <path d="M7.39279778,11.9444444 C6.76565097,11.8422222 6.17617729,11.6022222 5.67534626,11.2422222 C5.5734072,11.1666667 5.50249307,11.1222222 5.51800554,11.14 C5.6066482,11.2511111 6.18947368,11.5955556 6.47756233,11.7133333 C6.54847645,11.74 6.60166205,11.7666667 6.59722992,11.7733333 C6.57950139,11.7888889 6.17617729,11.6022222 5.9900277,11.4911111 C5.88808864,11.4288889 5.72409972,11.3222222 5.6265928,11.2511111 C5.44044321,11.1177778 4.94404432,10.6555556 4.94404432,10.6177778 C4.94404432,10.6044444 4.96177285,10.6088889 4.98393352,10.6244444 C5.00387812,10.64 4.99722992,10.6266667 4.96842105,10.5933333 C4.90858726,10.5266667 4.87756233,10.5111111 4.92409972,10.5733333 C4.93961219,10.5933333 4.92631579,10.5866667 4.89307479,10.5577778 C4.833241,10.5022222 4.81108033,10.4511111 4.86204986,10.48 C4.87977839,10.4911111 4.87977839,10.4844444 4.85761773,10.46 C4.82216066,10.4155556 4.8,10.4088889 4.82437673,10.4511111 C4.83545706,10.4688889 4.82880886,10.4688889 4.80443213,10.4466667 C4.7601108,10.4111111 4.7534626,10.3666667 4.79556787,10.3911111 C4.8132964,10.4022222 4.8132964,10.3955556 4.79113573,10.3711111 C4.75567867,10.3266667 4.73351801,10.32 4.75789474,10.3622222 C4.76897507,10.38 4.76232687,10.38 4.73795014,10.3577778 C4.69362881,10.3222222 4.68698061,10.2777778 4.72908587,10.3022222 C4.74459834,10.3111111 4.74903047,10.3088889 4.73795014,10.2977778 C4.72686981,10.2866667 4.70692521,10.2777778 4.69584488,10.2777778 C4.68254848,10.2777778 4.66703601,10.2644444 4.66038781,10.2466667 C4.65373961,10.2266667 4.66038781,10.2222222 4.68033241,10.2333333 C4.69806094,10.2444444 4.70470914,10.2422222 4.69362881,10.2311111 C4.68254848,10.22 4.66260388,10.2111111 4.65152355,10.2111111 C4.63822715,10.2111111 4.62271468,10.1977778 4.61606648,10.18 C4.60941828,10.16 4.61606648,10.1555556 4.63601108,10.1666667 C4.65373961,10.1777778 4.66038781,10.1755556 4.64930748,10.1644444 C4.63822715,10.1533333 4.61828255,10.1444444 4.60720222,10.1444444 C4.59390582,10.1444444 4.57839335,10.1311111 4.57174515,10.1133333 C4.56509695,10.0933333 4.57174515,10.0888889 4.58947368,10.1 C4.60941828,10.1111111 4.61385042,10.1088889 4.60277008,10.0911111 C4.59390582,10.0777778 4.57839335,10.0711111 4.56731302,10.0777778 C4.54072022,10.0955556 4.47202216,9.96 4.49196676,9.92888889 C4.50083102,9.91333333 4.49861496,9.91111111 4.48088643,9.92 C4.44764543,9.94222222 4.26592798,9.55777778 4.15955679,9.23777778 C4.07977839,8.99333333 3.98891967,8.58 3.9933518,8.47111111 C3.9933518,8.43777778 4.01551247,8.52444444 4.03767313,8.66222222 C4.06204986,8.8 4.10193906,8.97111111 4.12409972,9.04 C4.14847645,9.10888889 4.16177285,9.14222222 4.15512465,9.11111111 C4.14847645,9.08 4.11745152,8.93555556 4.08421053,8.78888889 C4.02880886,8.54222222 4.02437673,8.48444444 4.02437673,8 C4.02437673,7.58444444 4.033241,7.43777778 4.06426593,7.28 C4.08642659,7.17333333 4.09972299,7.08 4.09529086,7.07333333 C4.06204986,7.04222222 4.00443213,7.52888889 3.98891967,7.93333333 L3.97562327,8.38888889 L3.9800554,7.91111111 C3.9867036,7.52222222 3.99556787,7.39111111 4.03545706,7.21111111 C4.12631579,6.78666667 4.38116343,6.11111111 4.43878116,6.14666667 C4.45429363,6.15555556 4.4565097,6.15333333 4.44764543,6.13777778 C4.42770083,6.10666667 4.51855956,5.92666667 4.54515235,5.94444444 C4.55623269,5.95111111 4.57174515,5.94444444 4.58060942,5.93111111 C4.59168975,5.91333333 4.58725762,5.91111111 4.56731302,5.92222222 C4.54958449,5.93333333 4.54293629,5.92888889 4.54958449,5.90888889 C4.55623269,5.89111111 4.57396122,5.88 4.58725762,5.88444444 C4.60277008,5.88666667 4.60941828,5.88 4.60055402,5.86666667 C4.58282548,5.83777778 4.62936288,5.75111111 4.65595568,5.76666667 C4.66703601,5.77333333 4.68254848,5.76666667 4.69141274,5.75333333 C4.70027701,5.73555556 4.69806094,5.73333333 4.68254848,5.74222222 C4.64265928,5.76666667 4.65152355,5.72 4.69362881,5.68666667 C4.71800554,5.66444444 4.72465374,5.66444444 4.71357341,5.68444444 C4.68919668,5.72444444 4.71135734,5.71777778 4.7468144,5.67333333 C4.76897507,5.64888889 4.76897507,5.64222222 4.75124654,5.65333333 C4.70914127,5.67777778 4.71578947,5.63333333 4.7601108,5.59777778 C4.78448753,5.57555556 4.79113573,5.57555556 4.7800554,5.59555556 C4.75567867,5.63555556 4.77783934,5.62888889 4.8132964,5.58444444 C4.83545706,5.56 4.83545706,5.55333333 4.81772853,5.56444444 C4.76897507,5.59111111 4.7867036,5.54222222 4.83767313,5.49777778 C4.88642659,5.45555556 4.88864266,5.45555556 4.85540166,5.5 C4.82216066,5.54444444 4.82437673,5.54444444 4.87313019,5.50222222 C4.92409972,5.45777778 4.93961219,5.43111111 4.89972299,5.45555556 C4.88864266,5.46222222 4.87756233,5.45777778 4.87756233,5.44444444 C4.87756233,5.41555556 5.42493075,4.86666667 5.45595568,4.86666667 C5.46925208,4.86666667 5.47146814,4.88 5.46260388,4.89555556 C5.45373961,4.90888889 5.46703601,4.90222222 5.49362881,4.88 C5.55124654,4.82888889 5.55789474,4.80444444 5.50470914,4.84666667 C5.47146814,4.87111111 5.47368421,4.86888889 5.50692521,4.82666667 C5.54903047,4.77777778 5.60221607,4.75777778 5.57562327,4.8 C5.5534626,4.83555556 5.57783934,4.82444444 5.61108033,4.78444444 C5.633241,4.76 5.633241,4.75333333 5.61551247,4.76444444 C5.6,4.77333333 5.5867036,4.77555556 5.5867036,4.76666667 C5.5867036,4.74222222 5.99889197,4.48222222 6.19612188,4.38444444 C6.30470914,4.32888889 6.47977839,4.25111111 6.58393352,4.20888889 C6.7767313,4.13555556 7.19113573,4.02222222 7.26426593,4.02222222 C7.28642659,4.02444444 7.17562327,4.05777778 7.01606648,4.09777778 C6.70138504,4.18 6.48421053,4.26 6.20055402,4.40222222 C6.02105263,4.49333333 5.6531856,4.72222222 5.6531856,4.74444444 C5.6531856,4.74888889 5.73518006,4.7 5.83711911,4.63555556 C6.71689751,4.06222222 7.79612188,3.86666667 8.84210526,4.09333333 C9.21440443,4.17333333 9.73518006,4.38 10.0365651,4.56666667 C10.0875346,4.59777778 10.1296399,4.62 10.1296399,4.61333333 C10.1296399,4.60666667 10.0853186,4.57555556 10.0299169,4.54222222 C9.92797784,4.48444444 9.89030471,4.44444444 9.98116343,4.49111111 C10.2182825,4.61777778 10.5174515,4.85333333 10.8232687,5.15333333 C11.0360111,5.36444444 11.1113573,5.45333333 11.033795,5.40888889 C11.0182825,5.4 11.0249307,5.41333333 11.0470914,5.44 C11.0980609,5.49777778 11.1224377,5.50444444 11.0803324,5.45111111 C11.0648199,5.42888889 11.0781163,5.43555556 11.1113573,5.46444444 C11.1778393,5.52444444 11.1955679,5.58 11.133518,5.53111111 C11.100277,5.50666667 11.1024931,5.50888889 11.1357341,5.55111111 C11.1822715,5.60444444 11.2066482,5.61555556 11.1800554,5.57333333 C11.1689751,5.55333333 11.1756233,5.55333333 11.2,5.57555556 C11.2443213,5.61111111 11.2509695,5.65555556 11.2110803,5.63111111 C11.1933518,5.62222222 11.1889197,5.62444444 11.2,5.63555556 C11.2110803,5.64666667 11.2310249,5.65555556 11.2443213,5.65555556 C11.2554017,5.65555556 11.2709141,5.66888889 11.2775623,5.68666667 C11.2842105,5.70666667 11.2775623,5.71111111 11.2576177,5.69777778 C11.2310249,5.68222222 11.2310249,5.68666667 11.2576177,5.71777778 C11.2930748,5.76222222 11.3130194,5.76666667 11.2930748,5.72888889 C11.2842105,5.71333333 11.299723,5.72444444 11.3263158,5.75333333 C11.3506925,5.78222222 11.3684211,5.82 11.3617729,5.83777778 C11.3551247,5.85333333 11.3617729,5.86444444 11.3750693,5.86 C11.3883657,5.85777778 11.4038781,5.86888889 11.4105263,5.88666667 C11.4171745,5.90666667 11.4105263,5.91111111 11.3927978,5.9 C11.3728532,5.88888889 11.3684211,5.89111111 11.3795014,5.90888889 C11.3883657,5.92222222 11.4038781,5.92888889 11.4149584,5.92222222 C11.4415512,5.90444444 11.5102493,6.04 11.4903047,6.07111111 C11.4814404,6.08666667 11.4836565,6.08888889 11.501385,6.08 C11.534626,6.06 11.6875346,6.38444444 11.8027701,6.71111111 C11.8914127,6.96888889 11.9933518,7.43777778 11.9867036,7.56888889 L11.9844875,7.65555556 L11.9756233,7.57777778 C11.9445983,7.29111111 11.7473684,6.50444444 11.7119114,6.53777778 C11.7074792,6.54444444 11.734072,6.63777778 11.7695291,6.74666667 C11.8072022,6.85555556 11.8648199,7.06888889 11.8958449,7.22222222 C11.9490305,7.46888889 11.9556787,7.55111111 11.9556787,7.96666667 C11.9578947,8.44222222 11.9423823,8.58888889 11.8559557,8.94222222 C11.8315789,9.03777778 11.8160665,9.12 11.8204986,9.12666667 C11.8315789,9.13777778 11.9113573,8.80888889 11.9490305,8.6 C11.9645429,8.52 11.9822715,8.27555556 11.9911357,8.05555556 L12.0088643,7.65555556 L12.0022161,8.06666667 C11.9933518,8.59777778 11.9224377,8.97777778 11.7495845,9.42444444 C11.6565097,9.66888889 11.4836565,10.0044444 11.4592798,9.98888889 C11.4481994,9.98222222 11.432687,9.98888889 11.4238227,10.0022222 C11.4149584,10.02 11.4171745,10.0222222 11.432687,10.0133333 C11.465928,9.99333333 11.465928,10.0111111 11.434903,10.0688889 C11.4238227,10.0933333 11.4038781,10.1066667 11.3927978,10.1 C11.3817175,10.0933333 11.366205,10.1 11.3573407,10.1133333 C11.3462604,10.1311111 11.3506925,10.1333333 11.3706371,10.1222222 C11.3883657,10.1111111 11.3950139,10.1155556 11.3883657,10.1355556 C11.3817175,10.1533333 11.366205,10.1666667 11.3551247,10.1666667 C11.3418283,10.1666667 11.3218837,10.1755556 11.3108033,10.1866667 C11.299723,10.1977778 11.3063712,10.2 11.3240997,10.1888889 C11.3440443,10.1777778 11.3506925,10.1822222 11.3440443,10.2022222 C11.3373961,10.22 11.3218837,10.2333333 11.3108033,10.2333333 C11.2975069,10.2333333 11.2775623,10.2422222 11.266482,10.2533333 C11.2554017,10.2644444 11.2620499,10.2666667 11.2797784,10.2555556 C11.299723,10.2444444 11.3063712,10.2488889 11.299723,10.2688889 C11.2930748,10.2866667 11.2775623,10.3 11.266482,10.3 C11.2531856,10.3 11.233241,10.3088889 11.2221607,10.32 C11.2110803,10.3311111 11.2155125,10.3333333 11.233241,10.3244444 C11.2731302,10.3 11.266482,10.3444444 11.2221607,10.38 C11.1889197,10.4066667 11.1867036,10.4066667 11.2044321,10.3777778 C11.2221607,10.3488889 11.2199446,10.3488889 11.1867036,10.3755556 C11.1468144,10.4088889 11.1357341,10.4333333 11.1711911,10.4111111 C11.2132964,10.3844444 11.1933518,10.4377778 11.1445983,10.48 C11.0958449,10.5222222 11.0936288,10.5222222 11.1268698,10.4777778 C11.1601108,10.4333333 11.1578947,10.4333333 11.1091413,10.4755556 C11.0581717,10.52 11.0426593,10.5466667 11.0825485,10.5222222 C11.0958449,10.5155556 11.1047091,10.5177778 11.1047091,10.5311111 C11.1047091,10.5422222 10.9916898,10.6644444 10.8565097,10.8044444 C10.6105263,11.0533333 10.2271468,11.3644444 10.1916898,11.3422222 C10.1828255,11.3355556 10.1074792,11.3733333 10.0254848,11.4222222 C9.67534626,11.6333333 9.20554017,11.8177778 8.766759,11.9111111 C8.47423823,11.9755556 7.69861496,11.9933333 7.39279778,11.9444444 Z M8.48310249,10.6977778 C8.58282548,10.68 8.74238227,10.64 8.83767313,10.6088889 C9.03268698,10.5466667 9.38060942,10.38 9.46481994,10.3088889 L9.52022161,10.2622222 L9.46481994,10.2933333 C9.43379501,10.3111111 9.36509695,10.3533333 9.30969529,10.3844444 C9.08365651,10.5155556 8.55844875,10.6911111 8.4033241,10.6866667 C8.37229917,10.6866667 8.4299169,10.6666667 8.53407202,10.6444444 C9.05484765,10.5333333 9.49584488,10.3022222 9.85484765,9.95333333 C9.95235457,9.85555556 10.0387812,9.78222222 10.0454294,9.78888889 C10.0498615,9.79555556 10.0786704,9.77333333 10.1096953,9.74 C10.1385042,9.70666667 10.1451524,9.69333333 10.1252078,9.70888889 C10.06759,9.75111111 10.0764543,9.70444444 10.134072,9.65333333 C10.1606648,9.63111111 10.1739612,9.62444444 10.165097,9.64 C10.1429363,9.68 10.1628809,9.67333333 10.198338,9.62888889 C10.2249307,9.59777778 10.2249307,9.59333333 10.198338,9.60888889 C10.1783934,9.62222222 10.1717452,9.61777778 10.1783934,9.59777778 C10.1850416,9.58 10.200554,9.56666667 10.2138504,9.56666667 C10.2249307,9.56666667 10.2448753,9.55777778 10.2559557,9.54666667 C10.267036,9.53555556 10.2603878,9.53333333 10.2426593,9.54444444 C10.2227147,9.55555556 10.2160665,9.55111111 10.2227147,9.53111111 C10.2293629,9.51333333 10.2448753,9.5 10.2581717,9.5 C10.2692521,9.5 10.2891967,9.49111111 10.300277,9.48 C10.3113573,9.46888889 10.3047091,9.46666667 10.2869806,9.47777778 C10.267036,9.48888889 10.2603878,9.48444444 10.267036,9.46444444 C10.2736842,9.44666667 10.2914127,9.43555556 10.3047091,9.44 C10.3202216,9.44222222 10.3268698,9.43555556 10.3180055,9.42444444 C10.3113573,9.41111111 10.3468144,9.32 10.3955679,9.22222222 C10.7722992,8.47111111 10.7811634,7.55333333 10.4177285,6.80444444 C10.3689751,6.70222222 10.333518,6.60888889 10.3423823,6.59777778 C10.3490305,6.58666667 10.3423823,6.58 10.3268698,6.58222222 C10.3135734,6.58666667 10.2958449,6.57555556 10.2891967,6.55777778 C10.2825485,6.53777778 10.2891967,6.53333333 10.3091413,6.54444444 C10.3268698,6.55555556 10.333518,6.55333333 10.3224377,6.54222222 C10.3113573,6.53111111 10.2914127,6.52222222 10.2803324,6.52222222 C10.267036,6.52222222 10.2515235,6.50888889 10.2448753,6.49111111 C10.2382271,6.47111111 10.2448753,6.46666667 10.2648199,6.47777778 C10.2825485,6.48888889 10.2891967,6.48666667 10.2781163,6.47555556 C10.267036,6.46444444 10.2470914,6.45555556 10.2360111,6.45555556 C10.2227147,6.45555556 10.2072022,6.44222222 10.200554,6.42444444 C10.1939058,6.40444444 10.200554,6.4 10.2204986,6.41111111 C10.2382271,6.42222222 10.2448753,6.42 10.233795,6.40888889 C10.2227147,6.39777778 10.2027701,6.38888889 10.1916898,6.38888889 C10.1783934,6.38888889 10.1628809,6.37555556 10.1562327,6.35777778 C10.1495845,6.34 10.1562327,6.33333333 10.1717452,6.34222222 C10.2138504,6.36888889 10.198338,6.34222222 10.1473684,6.29777778 C10.098615,6.25555556 10.0963989,6.25555556 10.1296399,6.3 C10.1628809,6.34444444 10.1606648,6.34444444 10.1119114,6.30222222 C10.0631579,6.26 10.0432133,6.20666667 10.0853186,6.23333333 C10.134072,6.26444444 10.098615,6.22444444 9.91689751,6.04444444 C9.81052632,5.94 9.73074792,5.86888889 9.73961219,5.88444444 C9.75734072,5.91555556 9.71745152,5.92222222 9.69750693,5.88888889 C9.67313019,5.85111111 9.41606648,5.68222222 9.23213296,5.58444444 C9.03047091,5.47777778 9.02160665,5.45555556 9.22105263,5.55555556 C9.29418283,5.59333333 9.35401662,5.61777778 9.35401662,5.60888889 C9.35401662,5.58888889 8.99944598,5.42888889 8.82216066,5.37111111 C8.30360111,5.2 7.65207756,5.20444444 7.13351801,5.37777778 C6.79445983,5.49111111 6.3468144,5.74666667 6.20498615,5.90444444 C6.16066482,5.95555556 6.16509695,5.95555556 6.23379501,5.89555556 C6.36897507,5.78 6.56177285,5.65555556 6.7567867,5.55777778 C6.94958449,5.46 7.30415512,5.33333333 7.37285319,5.33555556 C7.39722992,5.33555556 7.33074792,5.36 7.2265928,5.39111111 C6.86759003,5.49777778 6.46426593,5.71555556 6.21606648,5.94222222 C6.09861496,6.04666667 6.03434903,6.08222222 6.10747922,6 C6.12963989,5.97555556 6.14293629,5.95555556 6.13850416,5.95555556 C6.13185596,5.95555556 6.08753463,5.99777778 6.04099723,6.04888889 C5.99224377,6.10222222 5.97894737,6.12 6.01440443,6.09111111 C6.11634349,5.99777778 6.08088643,6.07333333 5.9700831,6.17777778 C5.91246537,6.23333333 5.88365651,6.25555556 5.90581717,6.22888889 C5.96565097,6.15777778 5.93905817,6.16444444 5.87257618,6.23777778 C5.84376731,6.26888889 5.83268698,6.28888889 5.84819945,6.28 C5.88808864,6.25555556 5.88144044,6.3 5.83711911,6.33555556 C5.80387812,6.36222222 5.80166205,6.36222222 5.81939058,6.33333333 C5.83711911,6.30444444 5.83490305,6.30444444 5.80166205,6.33111111 C5.75955679,6.36444444 5.75069252,6.38888889 5.78836565,6.36444444 C5.80387812,6.35555556 5.81052632,6.36222222 5.80387812,6.38 C5.79722992,6.39777778 5.78171745,6.41111111 5.76842105,6.41111111 C5.75734072,6.41111111 5.73739612,6.42 5.72631579,6.43111111 C5.71523546,6.44222222 5.72188366,6.44444444 5.73961219,6.43333333 C5.75955679,6.42222222 5.76620499,6.42666667 5.75955679,6.44666667 C5.75290859,6.46444444 5.73739612,6.47777778 5.72409972,6.47777778 C5.71301939,6.47777778 5.69307479,6.48666667 5.68199446,6.49777778 C5.67091413,6.50888889 5.67756233,6.51111111 5.69529086,6.5 C5.71523546,6.48888889 5.72188366,6.49333333 5.71523546,6.51333333 C5.70858726,6.53111111 5.69307479,6.54444444 5.67977839,6.54444444 C5.66869806,6.54444444 5.64875346,6.55333333 5.63767313,6.56444444 C5.6265928,6.57555556 5.63102493,6.57777778 5.64875346,6.56888889 C5.68864266,6.54444444 5.68199446,6.56666667 5.61108033,6.69555556 C5.45595568,6.97111111 5.33407202,7.37777778 5.30083102,7.72 C5.28531856,7.88222222 5.28310249,7.88666667 5.27867036,7.77777778 C5.27867036,7.71111111 5.29639889,7.56 5.32077562,7.44444444 C5.37174515,7.19777778 5.36288089,7.14666667 5.30969529,7.38 C5.25429363,7.63111111 5.2299169,7.97555556 5.25429363,8.22222222 C5.27645429,8.45111111 5.33628809,8.75333333 5.36509695,8.78444444 C5.37396122,8.79555556 5.36288089,8.72444444 5.34072022,8.62888889 C5.31634349,8.53333333 5.29418283,8.37111111 5.28753463,8.26666667 L5.27867036,8.07777778 L5.29639889,8.24666667 C5.33185596,8.58222222 5.43157895,8.93555556 5.566759,9.20444444 C5.63767313,9.34444444 5.64432133,9.36666667 5.60443213,9.34222222 C5.58891967,9.33333333 5.5867036,9.33555556 5.59556787,9.35333333 C5.60443213,9.36666667 5.6199446,9.37333333 5.63102493,9.36666667 C5.64210526,9.36 5.66204986,9.37333333 5.67313019,9.39777778 C5.70415512,9.45555556 5.70415512,9.47333333 5.67091413,9.45333333 C5.6531856,9.44444444 5.64875346,9.44666667 5.6598338,9.45777778 C5.67091413,9.46888889 5.69085873,9.47777778 5.70415512,9.47777778 C5.71523546,9.47777778 5.73074792,9.49111111 5.73739612,9.50888889 C5.74404432,9.52888889 5.73739612,9.53333333 5.71745152,9.52222222 C5.69972299,9.51111111 5.69307479,9.51333333 5.70415512,9.52444444 C5.71523546,9.53555556 5.73518006,9.54444444 5.74847645,9.54444444 C5.75955679,9.54444444 5.77506925,9.55777778 5.78171745,9.57555556 C5.78836565,9.59555556 5.78171745,9.6 5.76177285,9.58666667 C5.73518006,9.57111111 5.73518006,9.57555556 5.76177285,9.60666667 C5.79722992,9.65111111 5.81939058,9.65777778 5.79501385,9.61777778 C5.78393352,9.59777778 5.79058172,9.59777778 5.81495845,9.62 C5.85484765,9.65111111 5.86814404,9.7 5.83047091,9.67777778 C5.79058172,9.65333333 5.80609418,9.68 5.85706371,9.72444444 C5.90581717,9.76666667 5.90803324,9.76666667 5.87479224,9.72222222 C5.85041551,9.68888889 5.85927978,9.69111111 5.90360111,9.73111111 C5.9700831,9.79111111 5.98781163,9.84444444 5.92576177,9.79777778 C5.90360111,9.78222222 5.94570637,9.83111111 6.01883657,9.90888889 C6.64598338,10.5644444 7.57229917,10.8622222 8.48310249,10.6977778 Z" id="Shape"></path>
            </g>
        </g>
    </g>
</svg>