<?xml version="1.0" encoding="UTF-8"?>
<svg width="11px" height="16px" viewBox="0 0 11 16" version="1.1" xmlns="http://www.w3.org/2000/svg" xmlns:xlink="http://www.w3.org/1999/xlink">
    <!-- Generator: Sketch 47.1 (45422) - http://www.bohemiancoding.com/sketch -->
    <title>map-marker</title>
    <desc>Created with Sketch.</desc>
    <defs></defs>
    <g id="Page-1" stroke="none" stroke-width="1" fill="none" fill-rule="evenodd">
        <g id="map-marker" fill-rule="nonzero" fill="#FF1288">
            <g id="Group" transform="translate(5.178008, 8.464442) scale(-1, 1) rotate(-180.000000) translate(-5.178008, -8.464442) translate(0.001537, 0.935031)">
                <path d="M4.66208884,15.0419208 C4.17190876,15.0096519 3.63255703,14.8913325 3.20230492,14.7223049 C2.53387755,14.4610805 2.01911164,14.1138056 1.45056423,13.5406483 C1.02338536,13.1119328 0.762160864,12.7585114 0.523985594,12.2913805 C0.185930372,11.6244898 0.0261224489,10.9791116 0.00307322929,10.1816087 C-0.0169027611,9.48859548 0.0845138056,8.82170468 0.275054022,8.37608644 C0.401056423,8.08259304 3.93680672,0.623865546 3.98597839,0.547034814 C4.14117647,0.305786314 4.41315726,0.118319328 4.7312365,0.0307322929 C4.88182473,-0.0107563025 5.17839136,-0.00768307323 5.33512605,0.0368787515 C5.64705882,0.126002401 5.90213686,0.302713085 6.05733494,0.536278511 C6.08806723,0.580840336 6.93935174,2.36945978 7.95044418,4.5115006 C9.26578632,7.29584633 9.80667464,8.45752701 9.84816329,8.58352941 C9.91731096,8.79250901 9.97570231,9.05834334 10.012581,9.33186074 C10.0509964,9.61767106 10.0509964,10.4305402 10.0110444,10.7117407 C9.86813929,11.747419 9.48552216,12.5756543 8.78789916,13.3547179 C7.98271308,14.255174 6.9562545,14.8252581 5.84067227,14.9912125 C5.47188475,15.044994 5.01397359,15.06497 4.66208884,15.0419208 Z M5.54717887,12.4880672 C5.77306122,12.4388955 5.91903961,12.3866506 6.1372389,12.2790876 C6.39078031,12.1530853 6.60590636,11.9917407 6.83639856,11.755102 C7.20057623,11.3801681 7.41416567,10.9652821 7.49867947,10.4720288 C7.52633853,10.3060744 7.53094838,10.2415367 7.52326531,9.96648264 C7.51711885,9.72830729 7.50789916,9.61613449 7.48331333,9.50857139 C7.3757503,9.02607443 7.14064826,8.60811525 6.77339736,8.25162065 C6.40307323,7.89205282 6.02506602,7.68614646 5.5394958,7.58165666 C5.40581032,7.55246099 5.33666266,7.54785114 5.03087635,7.54631452 C4.64518607,7.54631452 4.55913565,7.55707083 4.26256903,7.6477311 C3.6617527,7.83212485 3.08244898,8.32384153 2.78127251,8.90468187 C2.59687875,9.26271308 2.53387755,9.51779115 2.52312125,9.96648264 C2.51543817,10.2415367 2.52004802,10.3060744 2.54770709,10.4720288 C2.63068427,10.9637455 2.84273709,11.372485 3.20537816,11.7489556 C3.61104441,12.169988 4.03361345,12.4020168 4.57757503,12.5018968 C4.80345738,12.5433853 5.3289796,12.5357023 5.54717887,12.4880672 Z" id="Shape"></path>
            </g>
        </g>
    </g>
</svg>