<?xml version="1.0" encoding="UTF-8"?>
<svg width="16px" height="16px" viewBox="0 0 16 16" version="1.1" xmlns="http://www.w3.org/2000/svg" xmlns:xlink="http://www.w3.org/1999/xlink">
    <!-- Generator: Sketch 47.1 (45422) - http://www.bohemiancoding.com/sketch -->
    <title>phone</title>
    <desc>Created with Sketch.</desc>
    <defs></defs>
    <g id="Page-1" stroke="none" stroke-width="1" fill="none" fill-rule="evenodd">
        <g id="phone" fill-rule="nonzero" fill="#FF1288">
            <g id="Group" transform="translate(7.531280, 8.463115) scale(-1, 1) rotate(-180.000000) translate(-7.531280, -8.463115) translate(0.001868, 0.933704)">
                <path d="M2.78195884,15.0158517 C2.1093563,14.907488 1.61985112,14.737469 1.35828346,14.5207415 C0.894935046,14.1358633 0.313881185,13.1344329 0.121442125,12.3889651 C0.0354984674,12.0601372 0.0130783827,11.8957233 0.00373668078,11.5295286 C-0.0168150635,10.7877974 0.0709969348,10.4010509 0.571712159,9.04463582 C0.902408408,8.14596409 0.990220405,7.92736826 1.19386951,7.51259671 C1.55259086,6.78394395 2.08693622,5.98429427 2.74272369,5.20145964 C3.09397168,4.7829514 3.32751423,4.52698876 3.82636111,4.02066852 C5.35279521,2.47555101 6.69613195,1.50588235 8.10672894,0.930433513 C8.39819004,0.810859729 9.69668659,0.33443293 9.94704424,0.254094293 C10.9428696,-0.0635235732 11.7612027,-0.0822069771 12.6038243,0.198044081 C13.414684,0.465216757 14.2834623,1.02758721 14.6066852,1.49467231 C14.8589112,1.86086703 15.1242154,3.08836666 15.012115,3.3816961 C14.9579332,3.52555832 14.7916508,3.64886878 14.3058824,3.91230477 C13.1008028,4.56622391 12.4356736,4.94736535 12.1143191,5.16782952 C11.4585316,5.61996789 11.2773026,5.59941614 10.7130638,5.01649394 C10.5990951,4.8987885 10.4047876,4.67271931 10.2796088,4.51204204 C9.86857393,3.98703839 9.56403445,3.67502554 9.37906875,3.59281857 C9.18849803,3.50874325 8.98111224,3.57413516 8.47105532,3.87867464 C8.33840315,3.95714494 8.11046563,4.09166545 7.96660342,4.17760911 C6.86615093,4.82779157 5.89835061,5.64612465 5.16222449,6.5504014 C4.68579769,7.13519194 4.41675668,7.54249015 3.72920742,8.72141293 C3.63952708,8.87648519 3.5479784,9.13244782 3.5479784,9.2333382 C3.5479784,9.44632904 3.8581229,9.78636696 4.53259378,10.3113706 C5.01088892,10.6850387 5.3565319,11.0474968 5.43687053,11.2586192 C5.48544738,11.383798 5.47797401,11.5332652 5.41631879,11.6958108 C5.3938987,11.7555977 5.27992994,11.9443001 5.16596118,12.1161874 C4.89692016,12.5160122 4.54754051,13.1250912 3.92538315,14.2759889 C3.68063057,14.731864 3.54050504,14.9317764 3.41906291,15.0027734 C3.32938257,15.0550869 3.05847321,15.0606919 2.78195884,15.0158517 Z" id="Shape"></path>
            </g>
        </g>
    </g>
</svg>